#!OML:ASF H:\Terrain\Patient Classification 1\Takeo\Monday\TakeoMonday.ASF
:FULLY-SPECIFIED
:DEGREES
126
root 10.326 16.8624 -11.3157 -1.55314 -7.92197 -5.30523
lowerback 10.2643 0.636803 7.67717
upperback 2.13517 1.70611 1.25404
thorax -3.33453 0.780105 -3.22614
lowerneck -17.3447 1.23846 -3.19741
upperneck -4.851 2.20034 1.12528
head 1.33299 1.16826 1.0511
rclavicle -6.16232e-015 -3.70733e-014
rhumerus -9.93871 19.0206 -82.9681
rradius 69.2509
rwrist -19.6963
rhand -31.4854 23.8371
rfingers 7.12502
rthumb -4.75186 -6.08964
lclavicle -6.16232e-015 -3.70733e-014
lhumerus -51.2351 16.553 75.9243
lradius 19.9656
lwrist 18.1933
lhand -23.3247 21.7759
lfingers 7.12502
lthumb 3.12953 51.7326
rfemur 21.5342 2.62343 29.5936
rtibia 8.22792
rfoot -12.6204 -1.88372
rtoes -14.3338
lfemur -34.2787 -6.92192 -10.83
ltibia 29.8306
lfoot -13.2582 11.6991
ltoes -15.9931
127
root 10.3376 16.8331 -11.0534 -1.61502 -8.17405 -5.23056
lowerback 10.2211 0.796147 7.77522
upperback 2.27915 1.90494 0.988703
thorax -3.12408 0.889127 -3.57929
lowerneck -17.1297 1.21794 -2.00668
upperneck -5.33773 1.95623 0.201765
head 1.1523 1.00696 0.524951
rclavicle 8.08184e-015 -1.44119e-014
rhumerus -9.24923 18.6281 -82.817
rradius 69.3202
rwrist -19.8149
rhand -31.4515 23.5099
rfingers 7.12502
rthumb -4.71915 -6.41758
lclavicle 8.08184e-015 -1.44119e-014
lhumerus -51.1747 17.4519 74.4605
lradius 18.8107
lwrist 16.89
lhand -23.4368 21.3407
lfingers 7.12502
lthumb 3.02123 51.299
rfemur 23.857 3.08232 29.5015
rtibia 5.46647
rfoot -10.1015 -2.17635
rtoes -13.7839
lfemur -34.2706 -7.18022 -10.6657
ltibia 28.5227
lfoot -13.5566 12.1648
ltoes -14.9686
128
root 10.345 16.8023 -10.781 -1.64673 -8.60547 -5.3936
lowerback 10.2567 0.905339 7.91845
upperback 2.22183 2.06998 0.961169
thorax -3.178 0.966059 -3.70992
lowerneck -16.329 1.23141 -1.84229
upperneck -5.87418 1.92705 0.144305
head 0.84121 0.992259 0.462886
rclavicle 2.19533e-014 -7.45443e-015
rhumerus -9.13704 18.6841 -82.7701
rradius 69.4892
rwrist -19.9366
rhand -31.8476 23.0379
rfingers 7.12502
rthumb -5.10159 -6.8807
lclavicle 2.19533e-014 -7.45443e-015
lhumerus -51.7118 18.6052 72.9995
lradius 17.8959
lwrist 15.8059
lhand -23.524 21.5852
lfingers 7.12502
lthumb 2.93702 51.5447
rfemur 27.542 3.67743 29.7484
rtibia 1.27222e-014
rfoot -6.66968 -2.35016
rtoes -13.6515
lfemur -34.2071 -6.9721 -10.4371
ltibia 27.7603
lfoot -14.047 12.5858
ltoes -15.4103
129
root 10.354 16.7747 -10.5015 -1.76759 -8.8976 -5.63664
lowerback 10.4526 0.830965 7.97544
upperback 2.09167 2.01152 1.15822
thorax -3.43603 0.922954 -3.53654
lowerneck -15.8746 1.39298 -2.24263
upperneck -6.09512 2.1967 0.444708
head 0.683819 1.14164 0.632338
rclavicle -1.85677e-014 -5.41688e-015
rhumerus -9.42599 19.1705 -82.6348
rradius 70.023
rwrist -20.0046
rhand -31.9325 22.8627
rfingers 7.12502
rthumb -5.18358 -7.05393
lclavicle -1.85677e-014 -5.41688e-015
lhumerus -52.7642 19.9901 71.7483
lradius 17.3356
lwrist 14.8917
lhand -23.489 22.1917
lfingers 7.12502
lthumb 2.97085 52.1508
rfemur 28.6766 4.13099 30.0286
rtibia 6.36111e-014
rfoot -6.32719 -2.40119
rtoes -14.8298
lfemur -34.0396 -7.01592 -10.1608
ltibia 27.4811
lfoot -14.889 12.9839
ltoes -15.4461
130
root 10.3599 16.7473 -10.225 -1.91929 -8.96546 -5.78467
lowerback 10.5571 0.81063 8.02578
upperback 2.14463 1.99852 1.19555
thorax -3.43923 0.917239 -3.52613
lowerneck -16.493 1.35189 -1.7287
upperneck -5.83078 2.06663 -0.162278
head 0.884862 1.05102 0.356462
rclavicle 2.90971e-014 -9.44227e-016
rhumerus -9.44319 19.1743 -82.4786
rradius 70.4416
rwrist -20.2246
rhand -31.4424 23.3144
rfingers 7.12502
rthumb -4.71037 -6.61323
lclavicle 2.90971e-014 -9.44227e-016
lhumerus -53.1292 20.9094 70.6774
lradius 16.6909
lwrist 14.0486
lhand -23.8447 22.6611
lfingers 7.12502
lthumb 2.62733 52.6246
rfemur 29.8279 4.36321 30.2092
rtibia -6.04305e-014
rfoot -5.81863 -2.38443
rtoes -16.9381
lfemur -33.8473 -6.90361 -10.173
ltibia 27.5194
lfoot -15.1469 13.128
ltoes -15.3495
131
root 10.3639 16.7191 -9.94382 -2.04329 -9.0026 -5.47258
lowerback 10.4394 0.870358 7.60544
upperback 2.20406 2.01382 1.10723
thorax -3.32196 0.934652 -3.38106
lowerneck -17.0545 1.13897 -1.72146
upperneck -5.50262 1.79744 -0.348167
head 1.09236 0.90828 0.289446
rclavicle -2.42766e-014 -1.01877e-014
rhumerus -9.47598 19.0848 -82.3484
rradius 70.4773
rwrist -20.3726
rhand -31.2267 23.8449
rfingers 7.12502
rthumb -4.50201 -6.08729
lclavicle -2.42766e-014 -1.01877e-014
lhumerus -53.4587 21.7037 69.6953
lradius 16.2094
lwrist 13.1135
lhand -24.1552 22.4893
lfingers 7.12502
lthumb 2.32743 52.4564
rfemur 30.9032 4.62251 29.8785
rtibia 2.8625e-014
rfoot -5.01415 -2.26791
rtoes -19.6564
lfemur -33.6033 -6.30486 -10.9487
ltibia 27.8206
lfoot -14.9252 12.7421
ltoes -16.4117
132
root 10.3717 16.688 -9.65384 -2.0954 -9.13652 -4.84777
lowerback 10.216 0.941547 6.80853
upperback 2.16026 2.00191 1.00091
thorax -3.27089 0.936425 -3.03913
lowerneck -17.5385 1.11562 -1.34824
upperneck -4.9657 1.71727 -1.04186
head 1.36471 0.836808 0.00745023
rclavicle -3.35325e-014 -2.78299e-015
rhumerus -9.75783 19.2385 -82.2456
rradius 70.4936
rwrist -20.4645
rhand -31.2357 23.9893
rfingers 7.12502
rthumb -4.51074 -5.94269
lclavicle -3.35325e-014 -2.78299e-015
lhumerus -54.0792 22.4658 68.8877
lradius 16.0291
lwrist 12.2423
lhand -24.1805 22.2128
lfingers 7.12502
lthumb 2.30307 52.1801
rfemur 31.1058 5.03881 29.1697
rtibia 1.55839
rfoot -4.85797 -2.17753
rtoes -22.9642
lfemur -33.3829 -5.61603 -12.1152
ltibia 28.455
lfoot -14.2409 11.8735
ltoes -17.5026
